<?xml version="1.0" encoding="utf-8"?>
<COLLADA xmlns="http://www.collada.org/2005/11/COLLADASchema" version="1.4.1">
  <asset><contributor><author></author><authoring_tool>FBX COLLADA exporter</authoring_tool><comments></comments></contributor><created>2018-05-03T09:13:21Z</created><keywords></keywords><modified>2018-05-03T09:13:21Z</modified><revision></revision><subject></subject><title></title><unit meter="0.010000" name="centimeter"></unit><up_axis>Y_UP</up_axis></asset>
  <library_materials>
    <material id="lambert1" name="lambert1">
      <instance_effect url="#lambert1-fx"/>
    </material>
  </library_materials>
  <library_effects>
    <effect id="lambert1-fx" name="lambert1">
      <profile_COMMON>
        <technique sid="standard">
          <lambert>
            <emission>
              <color sid="emission">0.000000  0.000000 0.000000 1.000000</color>
            </emission>
            <ambient>
              <color sid="ambient">0.000000  0.000000 0.000000 1.000000</color>
            </ambient>
            <diffuse>
              <color sid="diffuse">0.400000  0.400000 0.400000 1.000000</color>
            </diffuse>
            <transparent opaque="RGB_ZERO">
              <color sid="transparent">0.000000  0.000000 0.000000 1.000000</color>
            </transparent>
            <transparency>
              <float sid="transparency">1.000000</float>
            </transparency>
          </lambert>
        </technique>
      </profile_COMMON>
    </effect>
  </library_effects>
  <library_geometries>
    <geometry id="pCylinder1-lib" name="pCylinder1Mesh">
      <mesh>
        <source id="pCylinder1-POSITION">
          <float_array id="pCylinder1-POSITION-array" count="420">
9.265436 -2.998975 7.084412
7.886959 -5.704389 7.084412
5.739930 -7.851417 7.084412
3.034515 -9.229895 7.084412
0.158240 -9.704885 7.084412
-2.963433 -9.229894 7.084412
-5.668846 -7.851415 7.084412
-7.846026 -5.722875 7.084412
-9.303082 -3.029500 7.084412
-9.898675 -0.000000 7.084412
-9.455856 3.072394 7.084412
-8.007108 5.821645 7.084412
-5.741689 7.931335 7.084412
-2.977857 9.259805 7.084412
0.158240 9.704881 7.084412
3.034513 9.229890 7.084412
5.739926 7.851413 7.084412
7.886953 5.704386 7.084412
9.265430 2.998973 7.084412
9.740420 -0.000000 7.084412
8.446922 -2.713326 5.694978
7.199743 -5.161054 5.694978
5.257215 -7.103580 5.694978
2.809488 -8.350760 5.694978
0.159459 -8.780506 5.694978
-2.617164 -8.350759 5.694978
-5.064890 -7.103579 5.694978
-7.041762 -5.181919 5.694978
-8.377930 -2.747677 5.694978
-8.941834 -0.000000 5.694978
-8.655702 2.825042 5.694978
-7.222456 5.291702 5.694978
-5.147841 7.193509 5.694978
-2.633759 8.384521 5.694978
0.159459 8.780502 5.694978
2.809487 8.350755 5.694978
5.257212 7.103577 5.694978
7.199738 5.161050 5.694978
8.446918 2.713325 5.694978
8.876665 -0.000000 5.694978
7.697397 -2.451838 4.493353
6.570412 -4.663673 4.493353
4.815089 -6.418994 4.493353
2.603255 -7.545981 4.493353
0.160570 -7.934312 4.493353
-2.300420 -7.545980 4.493353
-4.512254 -6.418992 4.493353
-6.308317 -4.688171 4.493368
-7.539528 -2.491855 4.493397
-8.080191 -0.000000 4.493439
-7.849272 2.577360 4.493490
-6.516275 4.813235 4.493439
-4.610176 6.523761 4.493397
-2.320318 7.585620 4.493368
0.160570 7.934309 4.493353
2.603253 7.545977 4.493353
4.815087 6.418990 4.493353
6.570407 4.663670 4.493353
7.697392 2.451836 4.493353
8.085725 -0.000000 4.493353
7.012883 -2.213280 3.477537
5.995551 -4.209909 3.477537
4.411017 -5.794443 3.477537
2.414388 -6.811775 3.477537
0.161570 -7.162323 3.477537
-2.012172 -6.811775 3.477537
-4.008800 -5.794442 3.477537
-5.644583 -4.240380 3.477537
-6.789298 -2.262103 3.477537
-7.317724 -0.000000 3.477537
-7.138424 2.357523 3.477537
-5.892122 4.387557 3.477537
-4.130036 5.922258 3.477537
-2.037500 6.861076 3.477537
0.161570 7.162319 3.477537
2.414387 6.811771 3.477537
4.411015 5.794439 3.477537
5.995546 4.209905 3.477537
7.012880 2.213278 3.477537
7.363429 -0.000001 3.477537
6.421205 -2.006719 2.622314
5.498819 -3.817005 2.622314
4.062167 -5.253657 2.622314
2.251880 -6.176042 2.622314
0.162456 -6.493876 2.622314
-1.761556 -6.176042 2.622314
-3.571842 -5.253656 2.622314
-5.076441 -3.856893 2.622314
-6.170715 -2.071543 2.622314
-6.693952 -0.000001 2.622314
-6.553571 2.175024 2.622314
-5.382412 4.036514 2.622314
-3.735471 5.423367 2.622314
-1.795572 6.240579 2.622314
0.162456 6.493873 2.622314
2.251879 6.176038 2.622314
4.062166 5.253654 2.622314
5.498815 3.817002 2.622314
6.421201 2.006716 2.622314
6.739034 -0.000001 2.622314
5.872960 -1.850621 1.903183
5.038547 -3.520088 1.903183
3.738921 -4.844985 1.903183
2.101296 -5.695624 1.903183
0.163277 -5.988731 1.903183
-1.529346 -5.695624 1.903183
-3.166969 -4.844984 1.903183
-4.632763 -3.618176 1.903183
-5.679594 -1.953685 1.903183
-6.179754 -0.000001 1.903183
-6.056127 2.056191 1.903183
-4.964204 3.813817 1.903183
-3.426705 5.114812 1.903183
-1.613667 5.854326 1.903183
0.163277 5.988728 1.903183
2.101295 5.695620 1.903183
3.738919 4.844981 1.903183
5.038543 3.520085 1.903183
5.872955 1.850619 1.903183
6.160477 -0.000001 1.903183
5.521748 -1.713245 1.278603
4.734256 -3.258784 1.278603
3.507711 -4.485328 1.278603
1.962174 -5.272819 1.278603
0.162532 -5.544170 1.278603
-1.464312 -5.272819 1.278603
-3.009851 -4.485326 1.278603
-4.294238 -3.291714 1.278603
-5.224591 -1.766054 1.278603
-5.664806 -0.000001 1.278603
-5.538831 1.848736 1.278603
-4.548269 3.436346 1.278603
-3.148474 4.623587 1.278603
-1.494140 5.326098 1.278603
0.162532 5.544167 1.278603
1.962173 5.272815 1.278603
3.507710 4.485323 1.278603
4.734254 3.258780 1.278603
5.521745 1.713242 1.278603
5.793100 -0.000001 1.278603
</float_array>
          <technique_common>
            <accessor source="#pCylinder1-POSITION-array" count="140" stride="3">
              <param name="X" type="float"/>
              <param name="Y" type="float"/>
              <param name="Z" type="float"/>
            </accessor>
          </technique_common>
        </source>
        <source id="pCylinder1-Normal0">
          <float_array id="pCylinder1-Normal0-array" count="420">
0.806608 -0.263159 -0.529274
0.683346 -0.498875 -0.533068
0.492988 -0.683039 -0.538906
0.259756 -0.795886 -0.546894
-0.000373 -0.832575 -0.553912
-0.255002 -0.787695 -0.560812
-0.482077 -0.667468 -0.567529
-0.656340 -0.493611 -0.570584
-0.773221 -0.277782 -0.570059
-0.830453 -0.029320 -0.556317
-0.798303 0.258547 -0.543936
-0.658768 0.511795 -0.551444
-0.467996 0.682598 -0.561284
-0.242063 0.793989 -0.557662
0.004037 0.833150 -0.553032
0.259756 0.795886 -0.546894
0.492988 0.683039 -0.538906
0.683346 0.498875 -0.533068
0.806608 0.263159 -0.529273
0.849271 0.000001 -0.527958
0.801471 -0.260306 -0.538410
0.679900 -0.493739 -0.542179
0.491888 -0.676579 -0.547984
0.260191 -0.789386 -0.556031
0.000023 -0.826428 -0.563042
-0.250655 -0.782662 -0.569747
-0.475576 -0.664511 -0.576414
-0.648843 -0.493790 -0.578942
-0.766434 -0.281133 -0.577532
-0.822671 -0.036893 -0.567320
-0.788190 0.256041 -0.559642
-0.646964 0.514706 -0.562598
-0.459487 0.682184 -0.568769
-0.235647 0.790058 -0.565931
0.005172 0.827110 -0.562016
0.260191 0.789386 -0.556031
0.491889 0.676579 -0.547984
0.679901 0.493739 -0.542178
0.801471 0.260307 -0.538410
0.843516 0.000001 -0.537104
0.785776 -0.255193 -0.563411
0.666437 -0.483928 -0.567164
0.481986 -0.662894 -0.572941
0.252469 -0.773669 -0.581116
0.000010 -0.808938 -0.587894
-0.247455 -0.765075 -0.594497
-0.463947 -0.651247 -0.600525
-0.632695 -0.488124 -0.601191
-0.750492 -0.283802 -0.596841
-0.806343 -0.049037 -0.589412
-0.768652 0.249907 -0.588830
-0.627073 0.514693 -0.584697
-0.445493 0.674847 -0.588318
-0.228582 0.775594 -0.588391
0.006582 0.810041 -0.586337
0.252469 0.773669 -0.581116
0.481986 0.662894 -0.572941
0.666438 0.483928 -0.567164
0.785776 0.255194 -0.563411
0.827063 0.000001 -0.562109
0.771417 -0.250526 -0.584938
0.654098 -0.474960 -0.588702
0.472881 -0.650359 -0.594489
0.245047 -0.759340 -0.602790
-0.000010 -0.792834 -0.609438
-0.244891 -0.748682 -0.616039
-0.452625 -0.640039 -0.620871
-0.617561 -0.487056 -0.617571
-0.738915 -0.291808 -0.607333
-0.800777 -0.059663 -0.595984
-0.763658 0.248318 -0.595957
-0.616487 0.519555 -0.591613
-0.431993 0.674028 -0.599223
-0.219943 0.765201 -0.605055
0.008863 0.794749 -0.606873
0.245047 0.759340 -0.602789
0.472881 0.650359 -0.594488
0.654098 0.474960 -0.588701
0.771417 0.250527 -0.584938
0.812018 0.000001 -0.583632
0.759530 -0.244444 -0.602794
0.650002 -0.467724 -0.598942
0.475329 -0.647843 -0.595282
0.245844 -0.764219 -0.596263
-0.000046 -0.799496 -0.600671
-0.250969 -0.750583 -0.611261
-0.451485 -0.646584 -0.614891
-0.617873 -0.503597 -0.603840
-0.745162 -0.307323 -0.591850
-0.807349 -0.070304 -0.585871
-0.771762 0.247633 -0.585715
-0.624763 0.534594 -0.569105
-0.436567 0.700086 -0.565056
-0.215874 0.790322 -0.573401
0.015988 0.807111 -0.590183
0.245844 0.764219 -0.596263
0.475329 0.647843 -0.595282
0.650002 0.467724 -0.598942
0.759530 0.244445 -0.602794
0.796700 0.000001 -0.604375
0.774597 -0.251445 -0.580323
0.660009 -0.478687 -0.579005
0.481090 -0.659603 -0.577475
0.248294 -0.778048 -0.577054
0.000025 -0.816570 -0.577246
-0.254697 -0.774470 -0.579073
-0.454901 -0.676721 -0.578890
-0.617251 -0.528011 -0.583270
-0.741182 -0.317689 -0.591374
-0.793699 -0.072841 -0.603934
-0.749420 0.247079 -0.614266
-0.602403 0.527357 -0.599170
-0.418363 0.694764 -0.585043
-0.200918 0.791681 -0.576951
0.024019 0.817947 -0.574792
0.248294 0.778048 -0.577054
0.481090 0.659603 -0.577474
0.660009 0.478687 -0.579005
0.774597 0.251446 -0.580323
0.814028 0.000001 -0.580826
0.814915 -0.259591 -0.518195
0.685599 -0.488883 -0.539396
0.490902 -0.664710 -0.563183
0.247248 -0.778022 -0.577538
-0.000429 -0.816377 -0.577520
-0.273144 -0.784091 -0.557309
-0.475990 -0.684285 -0.552439
-0.621386 -0.518896 -0.587049
-0.725422 -0.306530 -0.616281
-0.769044 -0.073730 -0.634930
-0.714469 0.224698 -0.662605
-0.565129 0.484813 -0.667522
-0.391461 0.634633 -0.666333
-0.194399 0.739944 -0.643966
0.023935 0.800481 -0.598880
0.247248 0.778022 -0.577538
0.490903 0.664710 -0.563183
0.685600 0.488883 -0.539395
0.814915 0.259592 -0.518194
0.860326 0.000001 -0.509745
</float_array>
          <technique_common>
            <accessor source="#pCylinder1-Normal0-array" count="140" stride="3">
              <param name="X" type="float"/>
              <param name="Y" type="float"/>
              <param name="Z" type="float"/>
            </accessor>
          </technique_common>
        </source>
        <source id="pCylinder1-UV0">
          <float_array id="pCylinder1-UV0-array" count="294">
1.005613 0.996576
0.955051 0.996575
0.904490 0.996575
0.853929 0.996575
0.803368 0.996575
0.752806 0.996575
0.702245 0.996576
0.651684 0.996575
0.601122 0.996575
0.550561 0.996576
0.500000 0.996575
0.449439 0.996575
0.398877 0.996575
0.348316 0.996575
0.297755 0.996575
0.247194 0.996575
0.196632 0.996575
0.146071 0.996575
0.095510 0.996575
0.044949 0.996575
-0.005613 0.996575
1.005613 0.831207
0.955051 0.831207
0.904490 0.831207
0.853929 0.831207
0.803368 0.831207
0.752806 0.831207
0.702245 0.831207
0.651684 0.831207
0.601122 0.831207
0.550561 0.831207
0.500000 0.831207
0.449439 0.831207
0.398878 0.831207
0.348316 0.831207
0.297755 0.831207
0.247194 0.831207
0.196632 0.831207
0.146071 0.831207
0.095510 0.831207
0.044949 0.831207
-0.005613 0.831207
1.005613 0.665838
0.955051 0.665838
0.904490 0.665838
0.853929 0.665838
0.803368 0.665838
0.752806 0.665838
0.702245 0.665838
0.651684 0.665838
0.601122 0.665838
0.550561 0.665838
0.500000 0.665838
0.449439 0.665838
0.398878 0.665838
0.348316 0.665838
0.297755 0.665838
0.247194 0.665838
0.196632 0.665838
0.146071 0.665838
0.095510 0.665838
0.044949 0.665838
-0.005613 0.665838
1.005613 0.500470
0.955051 0.500470
0.904490 0.500470
0.853929 0.500470
0.803368 0.500470
0.752806 0.500470
0.702245 0.500470
0.651684 0.500470
0.601122 0.500470
0.550561 0.500470
0.500000 0.500470
0.449439 0.500470
0.398878 0.500470
0.348316 0.500470
0.297755 0.500470
0.247194 0.500470
0.196632 0.500470
0.146071 0.500470
0.095510 0.500470
0.044949 0.500470
-0.005613 0.500470
1.005613 0.335101
0.955051 0.335101
0.904490 0.335101
0.853929 0.335101
0.803368 0.335101
0.752806 0.335101
0.702245 0.335101
0.651684 0.335101
0.601122 0.335101
0.550561 0.335101
0.500000 0.335101
0.449439 0.335101
0.398878 0.335101
0.348316 0.335101
0.297755 0.335101
0.247194 0.335101
0.196632 0.335101
0.146071 0.335101
0.095510 0.335101
0.044949 0.335101
-0.005613 0.335101
1.005613 0.169733
0.955051 0.169733
0.904490 0.169733
0.853929 0.169733
0.803368 0.169733
0.752806 0.169733
0.702245 0.169733
0.651684 0.169733
0.601122 0.169733
0.550561 0.169733
0.500000 0.169733
0.449439 0.169733
0.398878 0.169733
0.348316 0.169733
0.297755 0.169733
0.247194 0.169733
0.196632 0.169733
0.146071 0.169733
0.095510 0.169733
0.044949 0.169733
-0.005613 0.169733
1.005613 0.004364
0.955051 0.004364
0.904490 0.004364
0.853929 0.004364
0.803367 0.004364
0.752806 0.004364
0.702245 0.004364
0.651684 0.004364
0.601122 0.004364
0.550561 0.004364
0.500000 0.004364
0.449439 0.004364
0.398878 0.004364
0.348316 0.004364
0.297755 0.004364
0.247194 0.004364
0.196632 0.004364
0.146071 0.004364
0.095510 0.004364
0.044949 0.004364
-0.005613 0.004364
</float_array>
          <technique_common>
            <accessor source="#pCylinder1-UV0-array" count="147" stride="2">
              <param name="S" type="float"/>
              <param name="T" type="float"/>
            </accessor>
          </technique_common>
        </source>
        <vertices id="pCylinder1-VERTEX">
          <input semantic="POSITION" source="#pCylinder1-POSITION"/>
          <input semantic="NORMAL" source="#pCylinder1-Normal0"/>
        </vertices>
        <triangles count="240" material="lambert1"><input semantic="VERTEX" offset="0" source="#pCylinder1-VERTEX"/><input semantic="TEXCOORD" offset="1" set="0" source="#pCylinder1-UV0"/><p> 1 1 21 22 0 0 0 0 21 22 20 21 2 2 21 22 1 1 21 22 2 2 22 23 3 3 22 23 2 2 22 23 3 3 23 24 4 4 23 24 3 3 23 24 4 4 24 25 4 4 5 5 25 26 4 4 25 26 24 25 6 6 26 27 5 5 5 5 26 27 25 26 7 7 27 28 6 6 6 6 27 28 26 27 8 8 27 28 7 7 27 28 8 8 28 29 9 9 28 29 8 8 28 29 9 9 29 30 9 9 10 10 30 31 9 9 30 31 29 30 11 11 31 32 10 10 10 10 31 32 30 31 12 12 31 32 11 11 31 32 12 12 32 33 13 13 32 33 12 12 32 33 13 13 33 34 14 14 33 34 13 13 33 34 14 14 34 35 14 14 15 15 35 36 14 14 35 36 34 35 16 16 36 37 15 15 15 15 36 37 35 36 17 17 36 37 16 16 36 37 17 17 37 38 18 18 37 38 17 17 37 38 18 18 38 39 19 19 38 39 18 18 38 39 19 19 39 40 19 19 0 20 20 41 19 19 20 41 39 40 21 22 41 43 20 21 20 21 41 43 40 42 22 23 41 43 21 22 41 43 22 23 42 44 23 24 42 44 22 23 42 44 23 24 43 45 24 25 43 45 23 24 43 45 24 25 44 46 24 25 25 26 45 47 24 25 45 47 44 46 26 27 46 48 25 26 25 26 46 48 45 47 26 27 47 49 46 48 47 49 26 27 27 28 28 29 47 49 27 28 47 49 28 29 48 50 29 30 48 50 28 29 48 50 29 30 49 51 29 30 30 31 50 52 29 30 50 52 49 51 31 32 51 53 30 31 30 31 51 53 50 52 32 33 51 53 31 32 51 53 32 33 52 54 33 34 52 54 32 33 52 54 33 34 53 55 34 35 53 55 33 34 53 55 34 35 54 56 34 35 35 36 55 57 34 35 55 57 54 56 36 37 56 58 35 36 35 36 56 58 55 57 37 38 56 58 36 37 56 58 37 38 57 59 38 39 57 59 37 38 57 59 38 39 58 60 39 40 58 60 38 39 58 60 39 40 59 61 39 40 20 41 40 62 39 40 40 62 59 61 41 43 61 64 40 42 40 42 61 64 60 63 62 65 61 64 41 43 41 43 42 44 62 65 43 45 62 65 42 44 62 65 43 45 63 66 44 46 63 66 43 45 63 66 44 46 64 67 44 46 45 47 65 68 44 46 65 68 64 67 46 48 66 69 45 47 45 47 66 69 65 68 46 48 67 70 66 69 67 70 46 48 47 49 48 50 67 70 47 49 67 70 48 50 68 71 49 51 68 71 48 50 68 71 49 51 69 72 49 51 50 52 70 73 49 51 70 73 69 72 50 52 51 53 71 74 50 52 71 74 70 73 52 54 71 74 51 53 71 74 52 54 72 75 53 55 72 75 52 54 72 75 53 55 73 76 54 56 73 76 53 55 73 76 54 56 74 77 54 56 55 57 75 78 54 56 75 78 74 77 55 57 56 58 76 79 55 57 76 79 75 78 57 59 76 79 56 58 76 79 57 59 77 80 58 60 77 80 57 59 77 80 58 60 78 81 59 61 78 81 58 60 78 81 59 61 79 82 59 61 40 62 60 83 59 61 60 83 79 82 60 63 61 64 81 85 60 63 81 85 80 84 82 86 81 85 61 64 61 64 62 65 82 86 63 66 82 86 62 65 82 86 63 66 83 87 64 67 83 87 63 66 83 87 64 67 84 88 64 67 65 68 85 89 64 67 85 89 84 88 65 68 66 69 86 90 65 68 86 90 85 89 66 69 87 91 86 90 87 91 66 69 67 70 68 71 87 91 67 70 87 91 68 71 88 92 69 72 88 92 68 71 88 92 69 72 89 93 69 72 70 73 90 94 69 72 90 94 89 93 70 73 71 74 91 95 70 73 91 95 90 94 72 75 91 95 71 74 91 95 72 75 92 96 73 76 92 96 72 75 92 96 73 76 93 97 74 77 93 97 73 76 93 97 74 77 94 98 74 77 75 78 95 99 74 77 95 99 94 98 75 78 76 79 96 100 75 78 96 100 95 99 77 80 96 100 76 79 96 100 77 80 97 101 78 81 97 101 77 80 97 101 78 81 98 102 79 82 98 102 78 81 98 102 79 82 99 103 80 104 79 82 60 83 79 82 80 104 99 103 80 84 81 85 101 106 80 84 101 106 100 105 101 106 82 86 102 107 82 86 101 106 81 85 83 87 102 107 82 86 102 107 83 87 103 108 84 88 103 108 83 87 103 108 84 88 104 109 84 88 85 89 105 110 84 88 105 110 104 109 85 89 86 90 106 111 85 89 106 111 105 110 87 91 107 112 86 90 86 90 107 112 106 111 88 92 107 112 87 91 107 112 88 92 108 113 89 93 108 113 88 92 108 113 89 93 109 114 89 93 90 94 110 115 89 93 110 115 109 114 90 94 91 95 111 116 90 94 111 116 110 115 92 96 111 116 91 95 111 116 92 96 112 117 93 97 112 117 92 96 112 117 93 97 113 118 94 98 113 118 93 97 113 118 94 98 114 119 94 98 95 99 115 120 94 98 115 120 114 119 95 99 96 100 116 121 95 99 116 121 115 120 96 100 97 101 117 122 96 100 117 122 116 121 98 102 117 122 97 101 117 122 98 102 118 123 99 103 118 123 98 102 118 123 99 103 119 124 100 125 99 103 80 104 99 103 100 125 119 124 100 105 101 106 121 127 100 105 121 127 120 126 102 107 122 128 101 106 101 106 122 128 121 127 103 108 122 128 102 107 122 128 103 108 123 129 104 109 123 129 103 108 123 129 104 109 124 130 104 109 105 110 125 131 104 109 125 131 124 130 105 110 106 111 126 132 105 110 126 132 125 131 106 111 107 112 127 133 106 111 127 133 126 132 108 113 127 133 107 112 127 133 108 113 128 134 109 114 128 134 108 113 128 134 109 114 129 135 109 114 110 115 130 136 109 114 130 136 129 135 131 137 110 115 111 116 110 115 131 137 130 136 132 138 111 116 112 117 111 116 132 138 131 137 113 118 132 138 112 117 132 138 113 118 133 139 114 119 133 139 113 118 133 139 114 119 134 140 114 119 115 120 135 141 114 119 135 141 134 140 115 120 116 121 136 142 115 120 136 142 135 141 117 122 136 142 116 121 136 142 117 122 137 143 118 123 137 143 117 122 137 143 118 123 138 144 119 124 138 144 118 123 138 144 119 124 139 145 119 124 100 125 120 146 119 124 120 146 139 145</p></triangles>
      </mesh>
    </geometry>
  </library_geometries>
  <library_visual_scenes>
    <visual_scene id="chant1" name="chant1">
      <node name="pCylinder1" id="pCylinder1" sid="pCylinder1"><matrix sid="matrix">1.000000 0.000000 0.000000 0.000000 0.000000 0.000000 1.000000 0.000000 0.000000 -1.000000 0.000000 0.000000 0.000000 0.000000 0.000000 1.000000</matrix><instance_geometry url="#pCylinder1-lib"><bind_material><technique_common><instance_material symbol="lambert1" target="#lambert1"/></technique_common></bind_material></instance_geometry><extra><technique profile="FCOLLADA"><visibility>1.000000</visibility></technique></extra></node>
      <extra><technique profile="MAX3D"><frame_rate>24.000000</frame_rate></technique><technique profile="FCOLLADA"><start_time>0.041667</start_time><end_time>13.750000</end_time></technique></extra>
    </visual_scene>
  </library_visual_scenes>
  <scene>
    <instance_visual_scene url="#chant1"></instance_visual_scene>
  </scene>
</COLLADA>
