<svg xmlns="http://www.w3.org/2000/svg" viewBox="0 0 256 256"><polygon points="79,41 104,33 114,52 142,52 152,33 177,41 214,75 187,108 172,96 177,214 79,214 84,96 69,108 42,75" fill="#e5b75e" stroke="#614325" stroke-width="3" stroke-linejoin="round"/><polygon points="93,65 112,74 144,74 163,65 161,198 95,198" fill="#35515d" stroke="#fff0b9" stroke-width="2" stroke-linejoin="round"/><polygon points="97,98 115,98 112,116 100,116" fill="#577983" stroke="#e5b75e" stroke-width="1" stroke-linejoin="round"/><polygon points="115,98 133,98 130,116 118,116" fill="#577983" stroke="#e5b75e" stroke-width="1" stroke-linejoin="round"/><polygon points="133,98 151,98 148,116 136,116" fill="#577983" stroke="#e5b75e" stroke-width="1" stroke-linejoin="round"/><polygon points="151,98 169,98 166,116 154,116" fill="#577983" stroke="#e5b75e" stroke-width="1" stroke-linejoin="round"/><polygon points="97,122 115,122 112,140 100,140" fill="#577983" stroke="#e5b75e" stroke-width="1" stroke-linejoin="round"/><polygon points="115,122 133,122 130,140 118,140" fill="#577983" stroke="#e5b75e" stroke-width="1" stroke-linejoin="round"/><polygon points="133,122 151,122 148,140 136,140" fill="#577983" stroke="#e5b75e" stroke-width="1" stroke-linejoin="round"/><polygon points="151,122 169,122 166,140 154,140" fill="#577983" stroke="#e5b75e" stroke-width="1" stroke-linejoin="round"/><polygon points="97,146 115,146 112,164 100,164" fill="#577983" stroke="#e5b75e" stroke-width="1" stroke-linejoin="round"/><polygon points="115,146 133,146 130,164 118,164" fill="#577983" stroke="#e5b75e" stroke-width="1" stroke-linejoin="round"/><polygon points="133,146 151,146 148,164 136,164" fill="#577983" stroke="#e5b75e" stroke-width="1" stroke-linejoin="round"/><polygon points="151,146 169,146 166,164 154,164" fill="#577983" stroke="#e5b75e" stroke-width="1" stroke-linejoin="round"/><polygon points="97,170 115,170 112,188 100,188" fill="#577983" stroke="#e5b75e" stroke-width="1" stroke-linejoin="round"/><polygon points="115,170 133,170 130,188 118,188" fill="#577983" stroke="#e5b75e" stroke-width="1" stroke-linejoin="round"/><polygon points="133,170 151,170 148,188 136,188" fill="#577983" stroke="#e5b75e" stroke-width="1" stroke-linejoin="round"/><polygon points="151,170 169,170 166,188 154,188" fill="#577983" stroke="#e5b75e" stroke-width="1" stroke-linejoin="round"/><polygon points="86,84 128,102 170,84 168,108 128,126 88,108" fill="#e5b75e" stroke="#614325" stroke-width="3" stroke-linejoin="round"/><polygon points="128,96 139,109 128,122 117,109" fill="#368b80" stroke="#e5b75e" stroke-width="2" stroke-linejoin="round"/><polyline points="124,106 128,101 131,106" fill="none" stroke="#fff0b9" stroke-width="2" stroke-linejoin="round" stroke-linecap="round"/><polyline points="81,200 175,200" fill="none" stroke="#e5b75e" stroke-width="7" stroke-linejoin="round" stroke-linecap="round"/></svg>