<svg xmlns="http://www.w3.org/2000/svg" viewBox="0 0 256 256"><polygon points="68,44 128,26 188,44 195,137 170,190 128,229 86,190 61,137" fill="#e5b75e" stroke="#614325" stroke-width="3" stroke-linejoin="round"/><polygon points="81,57 128,42 175,57 179,134 156,177 128,205 100,177 77,134" fill="#304957" stroke="#fff0b9" stroke-width="2" stroke-linejoin="round"/><polygon points="128,57 143,113 168,130 143,146 128,193 113,146 89,130 113,113" fill="#e5b75e" stroke="#614325" stroke-width="3" stroke-linejoin="round"/><polygon points="128,115 139,128 128,141 117,128" fill="#368b80" stroke="#e5b75e" stroke-width="2" stroke-linejoin="round"/><polyline points="124,125 128,120 131,125" fill="none" stroke="#fff0b9" stroke-width="2" stroke-linejoin="round" stroke-linecap="round"/></svg>